<svg width="26" height="26" viewBox="0 0 26 26" fill="" xmlns="http://www.w3.org/2000/svg">
<path d="M25.4522 22.8269C25.801 23.1756 25.9969 23.6486 25.9969 24.1419C25.9969 24.6351 25.801 25.1081 25.4522 25.4569C25.1035 25.8056 24.6304 26.0015 24.1372 26.0015C23.644 26.0015 23.171 25.8056 22.8222 25.4569L13 15.6315L3.17468 25.4538C2.82592 25.8025 2.3529 25.9985 1.85968 25.9985C1.36646 25.9985 0.893447 25.8025 0.544689 25.4538C0.19593 25.105 5.1969e-09 24.632 0 24.1388C-5.1969e-09 23.6456 0.19593 23.1725 0.544689 22.8238L10.37 13.0015L0.547782 3.17622C0.199024 2.82746 0.00309417 2.35445 0.00309417 1.86123C0.00309418 1.36801 0.199024 0.894993 0.547782 0.546235C0.89654 0.197477 1.36956 0.0015468 1.86278 0.00154679C2.35599 0.00154679 2.82901 0.197477 3.17777 0.546235L13 10.3716L22.8253 0.544688C23.1741 0.19593 23.6471 -8.21702e-09 24.1403 0C24.6335 8.21702e-09 25.1066 0.19593 25.4553 0.544688C25.8041 0.893446 26 1.36646 26 1.85968C26 2.3529 25.8041 2.82592 25.4553 3.17468L15.63 13.0015L25.4522 22.8269Z" fill="#000"/>
</svg>
