<svg width="158" height="33" viewBox="0 0 158 33" fill="none" xmlns="http://www.w3.org/2000/svg">
<path d="M18.7299 32.96C24.9864 19.8271 6.69143 9.29909 16.0222 0.0400391C11.122 8.23975 30.9975 21.2384 18.7299 32.96ZM22.0725 1.98681C21.1039 1.21236 19.5414 1.55784 18.5827 2.75799C17.6239 3.95815 17.6321 5.55945 18.6007 6.33554C19.5692 7.10999 21.1317 6.76452 22.0905 5.56436C23.0492 4.36421 23.0411 2.7629 22.0725 1.98681Z" fill="#63A736"/>
<path d="M19.0685 10.1358C20.8764 7.98595 25.9287 5.58236 29.0504 6.88076C27.0887 6.97408 22.1771 10.1063 20.3005 12.3871C20.1663 12.1693 19.0685 10.1374 19.0685 10.1374V10.1358ZM11.6667 7.47674C11.0467 9.26633 10.2531 13.304 12.4341 17.8328C15.0911 23.3506 16.8647 24.2986 18.4059 29.9604C19.0685 19.9875 13.0231 15.6486 11.6667 7.47674Z" fill="#005A36"/>
<path d="M40.063 10.4076H39.9092C39.4732 10.4076 39.1077 10.259 38.8128 9.962C38.5179 9.66496 38.3704 9.31625 38.3704 8.91589C38.3704 8.48969 38.5179 8.13453 38.8128 7.8504C39.1077 7.55336 39.4732 7.40483 39.9092 7.40483H40.063C40.499 7.40483 40.858 7.55336 41.1401 7.8504C41.4351 8.13453 41.5825 8.48969 41.5825 8.91589C41.5825 9.31625 41.4351 9.66496 41.1401 9.962C40.858 10.259 40.499 10.4076 40.063 10.4076ZM37.1587 13.604V11.5893H41.2363V21.7405H38.7359V13.604H37.1587Z" fill="black"/>
<path d="M43.3216 21.7405V8.10224H49.4572C50.2138 8.10224 50.887 8.21202 51.4768 8.43157C52.0666 8.63821 52.5603 8.9288 52.9578 9.30334C53.3553 9.67787 53.6567 10.1234 53.8618 10.64C54.067 11.1566 54.1696 11.7184 54.1696 12.3254C54.1696 13.5394 53.7657 14.5468 52.9578 15.3475C52.15 16.1354 50.9831 16.5293 49.4572 16.5293H45.9182V21.7405H43.3216ZM51.5537 12.4223V12.2092C51.5537 11.6151 51.3678 11.1566 50.9959 10.8338C50.6241 10.498 50.0855 10.3301 49.3803 10.3301H45.9182V14.3208H49.3803C50.0855 14.3208 50.6241 14.1529 50.9959 13.8171C51.3678 13.4813 51.5537 13.0164 51.5537 12.4223Z" fill="black"/>
<path d="M57.9702 15.7737V21.7405H55.4698V7.36609H57.9318V13.0229H57.951C58.2331 12.4675 58.637 12.0478 59.1628 11.7636C59.7013 11.4666 60.3104 11.3181 60.99 11.3181C62.0543 11.3181 62.939 11.6797 63.6443 12.4029C64.3624 13.1133 64.7214 14.1077 64.7214 15.3863V21.7405H62.221V15.6575C62.221 14.9214 62.0094 14.3725 61.5863 14.0108C61.1631 13.6363 60.6823 13.449 60.1437 13.449C59.5923 13.449 59.0922 13.6428 58.6434 14.0302C58.1946 14.4048 57.9702 14.9859 57.9702 15.7737Z" fill="black"/>
<path d="M68.7451 10.4076H68.5912C68.1552 10.4076 67.7898 10.259 67.4949 9.962C67.1999 9.66496 67.0525 9.31625 67.0525 8.91589C67.0525 8.48969 67.1999 8.13453 67.4949 7.8504C67.7898 7.55336 68.1552 7.40483 68.5912 7.40483H68.7451C69.1811 7.40483 69.5401 7.55336 69.8222 7.8504C70.1171 8.13453 70.2646 8.48969 70.2646 8.91589C70.2646 9.31625 70.1171 9.66496 69.8222 9.962C69.5401 10.259 69.1811 10.4076 68.7451 10.4076ZM65.8407 13.604V11.5893H69.9184V21.7405H67.4179V13.604H65.8407Z" fill="black"/>
<path d="M71.8113 19.0671V7.36609H74.3117V18.6796C74.3117 19.0154 74.395 19.2672 74.5617 19.4351C74.7284 19.5901 74.9721 19.6676 75.2926 19.6676H76.966V21.7405H74.581C73.6449 21.7405 72.9461 21.5145 72.4845 21.0624C72.0357 20.5975 71.8113 19.9324 71.8113 19.0671Z" fill="black"/>
<path d="M77.8934 14.5339C77.996 13.5782 78.4256 12.8033 79.1821 12.2092C79.9387 11.6151 80.9709 11.3181 82.2788 11.3181C82.8558 11.3181 83.4008 11.3891 83.9137 11.5312C84.4266 11.6603 84.869 11.867 85.2408 12.1511C85.6127 12.4352 85.9076 12.8033 86.1256 13.2553C86.3564 13.7073 86.4718 14.2562 86.4718 14.902V19.1058C86.4718 19.3899 86.5295 19.5772 86.6449 19.6676C86.7603 19.7451 86.927 19.7838 87.145 19.7838H87.7413V21.7405H86.3564C85.664 21.7405 85.1703 21.5919 84.8754 21.2949C84.5805 20.9979 84.4394 20.5975 84.4522 20.0938V19.9969H84.433C84.1894 20.6039 83.7791 21.0947 83.202 21.4692C82.6378 21.8309 81.939 22.0117 81.1055 22.0117C80.0669 22.0117 79.2142 21.7405 78.5474 21.198C77.8934 20.6556 77.5665 19.9065 77.5665 18.9508C77.5665 17.9693 77.9062 17.2267 78.5859 16.723C79.2783 16.2193 80.2143 15.8835 81.394 15.7156L82.625 15.5219C83.0994 15.4573 83.4393 15.3411 83.6444 15.1732C83.8624 15.0053 83.9714 14.7599 83.9714 14.437C83.9714 14.1013 83.8432 13.8042 83.5867 13.5459C83.3303 13.2747 82.8815 13.1391 82.2403 13.1391C81.6505 13.1391 81.1953 13.2682 80.8747 13.5265C80.567 13.7719 80.3939 14.1077 80.3554 14.5339H77.8934ZM84.0291 17.6335V16.6649C83.9393 16.7553 83.7919 16.8521 83.5867 16.9555C83.3815 17.0459 83.1315 17.1104 82.8366 17.1492L81.7787 17.3042C81.2273 17.3946 80.7914 17.556 80.4708 17.7885C80.1502 18.008 79.9899 18.3115 79.9899 18.699V18.8152C79.9899 19.2156 80.131 19.532 80.4131 19.7645C80.708 19.9969 81.1119 20.1132 81.6248 20.1132C82.3557 20.1132 82.9392 19.8872 83.3751 19.4351C83.8111 18.9702 84.0291 18.3697 84.0291 17.6335Z" fill="black"/>
<path d="M91.2354 15.7737V21.7405H88.735V11.5893H91.1008V13.2166H91.12C91.3893 12.5837 91.7996 12.1123 92.351 11.8024C92.9024 11.4795 93.5371 11.3181 94.2552 11.3181C95.3194 11.3181 96.2042 11.6797 96.9095 12.4029C97.6275 13.1133 97.9866 14.1077 97.9866 15.3863V21.7405H95.4861V15.6575C95.4861 14.9214 95.2746 14.3725 94.8514 14.0108C94.4283 13.6363 93.9474 13.449 93.4089 13.449C92.8575 13.449 92.3574 13.6428 91.9086 14.0302C91.4598 14.4048 91.2354 14.9859 91.2354 15.7737Z" fill="black"/>
<path d="M98.7481 11.5893H100.941V8.74153H103.441V11.5893H106.557V13.6428H103.441V18.854C103.441 19.151 103.505 19.3706 103.634 19.5126C103.775 19.6418 103.986 19.7064 104.268 19.7064H106.557V21.7405H103.691C102.768 21.7405 102.076 21.5145 101.614 21.0624C101.165 20.5975 100.941 19.9324 100.941 19.0671V13.6428H98.7481V11.5893Z" fill="black"/>
<path d="M110.507 15.7737V21.7405H108.007V7.36609H110.469V13.0229H110.488C110.77 12.4675 111.174 12.0478 111.7 11.7636C112.238 11.4666 112.847 11.3181 113.527 11.3181C114.591 11.3181 115.476 11.6797 116.181 12.4029C116.899 13.1133 117.258 14.1077 117.258 15.3863V21.7405H114.758V15.6575C114.758 14.9214 114.546 14.3725 114.123 14.0108C113.7 13.6363 113.219 13.449 112.68 13.449C112.129 13.449 111.629 13.6428 111.18 14.0302C110.731 14.4048 110.507 14.9859 110.507 15.7737Z" fill="black"/>
<path d="M119.07 21.7405V11.5893H121.474V13.3716H121.493C121.622 12.9454 121.91 12.5385 122.359 12.1511C122.808 11.7636 123.475 11.5699 124.359 11.5699H125.59V13.8752H123.898C123.051 13.8752 122.449 14.0754 122.09 14.4758C121.743 14.8632 121.57 15.3927 121.57 16.0643V21.7405H119.07Z" fill="black"/>
<path d="M131.05 22.0117C130.216 22.0117 129.479 21.8696 128.838 21.5855C128.209 21.2884 127.684 20.8945 127.261 20.4038C126.837 19.913 126.517 19.3447 126.299 18.699C126.094 18.0532 125.991 17.3752 125.991 16.6649C125.991 15.9546 126.094 15.2765 126.299 14.6308C126.517 13.985 126.837 13.4168 127.261 12.926C127.684 12.4352 128.209 12.0478 128.838 11.7636C129.479 11.4666 130.216 11.3181 131.05 11.3181C131.883 11.3181 132.614 11.4666 133.242 11.7636C133.871 12.0478 134.396 12.4352 134.819 12.926C135.243 13.4168 135.557 13.9915 135.762 14.6501C135.98 15.2959 136.089 15.9675 136.089 16.6649C136.089 17.3752 135.98 18.0532 135.762 18.699C135.557 19.3447 135.243 19.913 134.819 20.4038C134.409 20.8945 133.883 21.2884 133.242 21.5855C132.614 21.8696 131.883 22.0117 131.05 22.0117ZM133.589 17.1104V16.2387C133.589 15.3346 133.338 14.6372 132.838 14.1465C132.351 13.6428 131.755 13.3909 131.05 13.3909C130.332 13.3909 129.722 13.6428 129.222 14.1465C128.735 14.6501 128.491 15.3475 128.491 16.2387V17.1104C128.491 17.9887 128.735 18.6796 129.222 19.1833C129.722 19.687 130.332 19.9388 131.05 19.9388C131.755 19.9388 132.351 19.6934 132.838 19.2027C133.338 18.699 133.589 18.0016 133.589 17.1104Z" fill="black"/>
<path d="M137.553 11.5893H139.918V13.2941H139.938C140.22 12.7 140.63 12.2221 141.169 11.8605C141.72 11.4989 142.406 11.3181 143.227 11.3181C143.945 11.3181 144.58 11.4666 145.131 11.7636C145.682 12.0478 146.144 12.4352 146.516 12.926C146.888 13.4038 147.163 13.9721 147.343 14.6308C147.535 15.2765 147.631 15.9546 147.631 16.6649C147.631 17.3752 147.535 18.0532 147.343 18.699C147.15 19.3447 146.868 19.913 146.497 20.4038C146.137 20.8945 145.682 21.2884 145.131 21.5855C144.58 21.8696 143.945 22.0117 143.227 22.0117C142.457 22.0117 141.81 21.8567 141.284 21.5467C140.771 21.2239 140.367 20.7977 140.072 20.2682H140.053V25.46H137.553V11.5893ZM145.112 16.2193C145.112 15.3153 144.862 14.6179 144.362 14.1271C143.874 13.6234 143.284 13.3716 142.592 13.3716C141.9 13.3716 141.303 13.6299 140.803 14.1465C140.303 14.6501 140.053 15.3411 140.053 16.2193V17.0911C140.053 17.9822 140.303 18.6796 140.803 19.1833C141.303 19.6741 141.9 19.9194 142.592 19.9194C143.284 19.9194 143.874 19.6741 144.362 19.1833C144.862 18.6925 145.112 17.9951 145.112 17.0911V16.2193Z" fill="black"/>
<path d="M153.942 22.5541C153.544 23.6002 153.044 24.3428 152.441 24.7819C151.839 25.221 151.037 25.4406 150.037 25.4406H147.902V23.4065H149.922C150.319 23.4065 150.621 23.3355 150.826 23.1934C151.044 23.0513 151.236 22.7607 151.403 22.3216L151.71 21.4499L147.806 11.5893H150.576L153.038 18.6021H153.057L155.48 11.5893H158L153.942 22.5541Z" fill="black"/>
</svg>
