<svg width="20" height="21" viewBox="0 0 20 21" fill="none" xmlns="http://www.w3.org/2000/svg">
<g clip-path="url(#clip0_396_25467)">
<path d="M10 2.44775C12.6719 2.44775 12.9883 2.45947 14.0391 2.50635C15.0156 2.54932 15.543 2.71338 15.8945 2.8501C16.3594 3.02979 16.6953 3.24854 17.043 3.59619C17.3945 3.94775 17.6094 4.27979 17.7891 4.74463C17.9258 5.09619 18.0898 5.62744 18.1328 6.6001C18.1797 7.65479 18.1914 7.97119 18.1914 10.6392C18.1914 13.311 18.1797 13.6274 18.1328 14.6782C18.0898 15.6548 17.9258 16.1821 17.7891 16.5337C17.6094 16.9985 17.3906 17.3345 17.043 17.6821C16.6914 18.0337 16.3594 18.2485 15.8945 18.4282C15.543 18.5649 15.0117 18.729 14.0391 18.772C12.9844 18.8188 12.668 18.8306 10 18.8306C7.32813 18.8306 7.01172 18.8188 5.96094 18.772C4.98438 18.729 4.45703 18.5649 4.10547 18.4282C3.64063 18.2485 3.30469 18.0298 2.95703 17.6821C2.60547 17.3306 2.39063 16.9985 2.21094 16.5337C2.07422 16.1821 1.91016 15.6509 1.86719 14.6782C1.82031 13.6235 1.80859 13.3071 1.80859 10.6392C1.80859 7.96729 1.82031 7.65088 1.86719 6.6001C1.91016 5.62354 2.07422 5.09619 2.21094 4.74463C2.39063 4.27979 2.60938 3.94385 2.95703 3.59619C3.30859 3.24463 3.64063 3.02979 4.10547 2.8501C4.45703 2.71338 4.98828 2.54932 5.96094 2.50635C7.01172 2.45947 7.32813 2.44775 10 2.44775ZM10 0.646973C7.28516 0.646973 6.94531 0.658691 5.87891 0.705566C4.81641 0.752441 4.08594 0.924316 3.45313 1.17041C2.79297 1.42822 2.23438 1.76807 1.67969 2.32666C1.12109 2.88135 0.78125 3.43994 0.523438 4.09619C0.277344 4.73291 0.105469 5.45947 0.0585938 6.52197C0.0117188 7.59229 0 7.93213 0 10.647C0 13.3618 0.0117188 13.7017 0.0585938 14.7681C0.105469 15.8306 0.277344 16.561 0.523438 17.1938C0.78125 17.854 1.12109 18.4126 1.67969 18.9673C2.23438 19.522 2.79297 19.8657 3.44922 20.1196C4.08594 20.3657 4.8125 20.5376 5.875 20.5845C6.94141 20.6313 7.28125 20.6431 9.99609 20.6431C12.7109 20.6431 13.0508 20.6313 14.1172 20.5845C15.1797 20.5376 15.9102 20.3657 16.543 20.1196C17.1992 19.8657 17.7578 19.522 18.3125 18.9673C18.8672 18.4126 19.2109 17.854 19.4648 17.1978C19.7109 16.561 19.8828 15.8345 19.9297 14.772C19.9766 13.7056 19.9883 13.3657 19.9883 10.6509C19.9883 7.93604 19.9766 7.59619 19.9297 6.52979C19.8828 5.46729 19.7109 4.73682 19.4648 4.104C19.2188 3.43994 18.8789 2.88135 18.3203 2.32666C17.7656 1.77197 17.207 1.42822 16.5508 1.17432C15.9141 0.928223 15.1875 0.756348 14.125 0.709473C13.0547 0.658691 12.7148 0.646973 10 0.646973Z" fill="#616469"/>
<path d="M10 5.51025C7.16406 5.51025 4.86328 7.81104 4.86328 10.647C4.86328 13.4829 7.16406 15.7837 10 15.7837C12.8359 15.7837 15.1367 13.4829 15.1367 10.647C15.1367 7.81104 12.8359 5.51025 10 5.51025ZM10 13.979C8.16016 13.979 6.66797 12.4868 6.66797 10.647C6.66797 8.80713 8.16016 7.31494 10 7.31494C11.8398 7.31494 13.332 8.80713 13.332 10.647C13.332 12.4868 11.8398 13.979 10 13.979Z" fill="#616469"/>
<path d="M16.5391 5.30713C16.5391 5.97119 16 6.50635 15.3398 6.50635C14.6758 6.50635 14.1406 5.96729 14.1406 5.30713C14.1406 4.64307 14.6797 4.10791 15.3398 4.10791C16 4.10791 16.5391 4.64697 16.5391 5.30713Z" fill="#616469"/>
</g>
<defs>
<clipPath id="clip0_396_25467">
<rect width="20" height="20" fill="white" transform="translate(0 0.646973)"/>
</clipPath>
</defs>
</svg>
