<svg width="20" height="21" viewBox="0 0 20 21" fill="none" xmlns="http://www.w3.org/2000/svg">
<path d="M18.5195 0.646973H1.47656C0.660156 0.646973 0 1.2915 0 2.08838V19.2017C0 19.9985 0.660156 20.647 1.47656 20.647H18.5195C19.3359 20.647 20 19.9985 20 19.2056V2.08838C20 1.2915 19.3359 0.646973 18.5195 0.646973ZM5.93359 17.6899H2.96484V8.14307H5.93359V17.6899ZM4.44922 6.84229C3.49609 6.84229 2.72656 6.07275 2.72656 5.12353C2.72656 4.17432 3.49609 3.40478 4.44922 3.40478C5.39844 3.40478 6.16797 4.17432 6.16797 5.12353C6.16797 6.06885 5.39844 6.84229 4.44922 6.84229ZM17.043 17.6899H14.0781V13.0493C14.0781 11.9438 14.0586 10.5181 12.5352 10.5181C10.9922 10.5181 10.7578 11.7251 10.7578 12.9712V17.6899H7.79688V8.14307H10.6406V9.44775H10.6797C11.0742 8.69775 12.043 7.90479 13.4844 7.90479C16.4883 7.90479 17.043 9.88135 17.043 12.4517V17.6899Z" fill="#616469"/>
</svg>
