<svg width="19" height="33" viewBox="0 0 19 33" fill="none" xmlns="http://www.w3.org/2000/svg">
<path d="M7.72992 32.96C13.9864 19.8271 -4.30857 9.29909 5.02216 0.0400391C0.122013 8.23975 19.9975 21.2384 7.72992 32.96ZM11.0725 1.98681C10.1039 1.21236 8.54143 1.55784 7.58267 2.75799C6.62391 3.95815 6.63209 5.55945 7.60067 6.33554C8.56924 7.10999 10.1317 6.76452 11.0905 5.56436C12.0492 4.36421 12.0411 2.7629 11.0725 1.98681Z" fill="#63A736"/>
<path d="M8.0685 10.1358C9.8764 7.98595 14.9287 5.58236 18.0504 6.88076C16.0887 6.97408 11.1771 10.1063 9.30049 12.3871C9.16632 12.1693 8.0685 10.1374 8.0685 10.1374V10.1358ZM0.666737 7.47674C0.0466521 9.26633 -0.746861 13.304 1.43407 17.8328C4.09111 23.3506 5.86466 24.2986 7.40587 29.9604C8.0685 19.9875 2.02307 15.6486 0.666737 7.47674Z" fill="#005A36"/>
</svg>
