<svg width="20" height="21" viewBox="0 0 20 21" fill="none" xmlns="http://www.w3.org/2000/svg">
<path d="M19.9277 15.1952C19.7898 14.8172 19.5242 14.6129 19.2229 14.4495C19.1667 14.4189 19.1157 14.3882 19.0697 14.3678C18.9778 14.3218 18.8858 14.2759 18.7939 14.2299C17.8542 13.7294 17.1188 13.1063 16.6131 12.3607C16.4701 12.1513 16.3425 11.9266 16.2403 11.6967C16.1944 11.5742 16.1995 11.5027 16.2301 11.4363C16.2608 11.3852 16.3016 11.3444 16.3527 11.3086C16.5161 11.2014 16.6795 11.0941 16.7919 11.0226C16.9911 10.8898 17.1545 10.7877 17.2567 10.7162C17.6397 10.4455 17.9104 10.1595 18.0789 9.83774C18.3189 9.38831 18.3496 8.86228 18.1657 8.38731C17.9104 7.71317 17.2771 7.29949 16.5059 7.29949C16.3425 7.29949 16.1841 7.31481 16.0207 7.35056C15.9799 7.36077 15.9339 7.37099 15.893 7.3812C15.8981 6.92156 15.8879 6.43638 15.8471 5.9563C15.7041 4.27605 15.1116 3.39762 14.4988 2.69794C14.1055 2.25872 13.6459 1.8859 13.1301 1.59479C12.2006 1.06365 11.1434 0.792969 9.99427 0.792969C8.84516 0.792969 7.79309 1.06365 6.86359 1.59479C6.34776 1.8859 5.88812 2.25872 5.49487 2.69794C4.88201 3.39762 4.29469 4.28116 4.14658 5.9563C4.10572 6.43638 4.09551 6.92156 4.10061 7.3812C4.05976 7.37099 4.0189 7.36077 3.97294 7.35056C3.81461 7.31481 3.65119 7.29949 3.49286 7.29949C2.72168 7.29949 2.0884 7.71827 1.83304 8.38731C1.64918 8.86228 1.67982 9.38831 1.91986 9.83774C2.0884 10.1595 2.35907 10.4455 2.74211 10.7162C2.84425 10.7877 3.00258 10.8898 3.20686 11.0226C3.31411 11.0941 3.47243 11.1962 3.63076 11.2984C3.68694 11.3341 3.7329 11.3801 3.76865 11.4363C3.79929 11.5027 3.8044 11.5742 3.75333 11.707C3.65119 11.9317 3.52861 12.1513 3.38561 12.3556C2.89022 13.0808 2.17522 13.6988 1.26614 14.1941C0.78607 14.4495 0.285569 14.618 0.0710683 15.1952C-0.0872535 15.6293 0.0148896 16.1195 0.418355 16.5383C0.566463 16.6915 0.740106 16.8243 0.929071 16.9265C1.32232 17.141 1.74111 17.3095 2.18032 17.427C2.27225 17.4525 2.35397 17.4883 2.43057 17.5393C2.57868 17.667 2.55825 17.8611 2.75233 18.1471C2.84936 18.2952 2.97704 18.4229 3.12004 18.525C3.53372 18.811 3.99847 18.8263 4.48876 18.8468C4.93308 18.8621 5.43358 18.8825 6.01069 19.0715C6.25073 19.1481 6.49587 19.3013 6.78187 19.4801C7.47134 19.9039 8.41106 20.4811 9.98917 20.4811C11.5673 20.4811 12.5121 19.8988 13.2067 19.4749C13.4927 19.3013 13.7378 19.1481 13.9676 19.0715C14.5396 18.8825 15.0453 18.8621 15.4896 18.8468C15.9799 18.8263 16.4446 18.811 16.8583 18.525C17.0319 18.4024 17.1749 18.2492 17.2771 18.0654C17.4201 17.8253 17.415 17.6568 17.5478 17.5393C17.6193 17.4883 17.701 17.4525 17.7827 17.4321C18.2219 17.3146 18.6509 17.1461 19.0493 16.9265C19.2484 16.8192 19.4323 16.6762 19.5855 16.5077L19.5906 16.5026C19.989 16.094 20.086 15.6139 19.9277 15.1952ZM18.5283 15.9459C17.6754 16.4158 17.1034 16.3647 16.6642 16.6507C16.2863 16.8907 16.511 17.4117 16.2403 17.6006C15.9033 17.8304 14.9125 17.5853 13.6357 18.0092C12.5785 18.3565 11.9095 19.3626 10.0096 19.3626C8.10973 19.3626 7.45602 18.3616 6.38351 18.0092C5.10673 17.5853 4.11594 17.8356 3.77886 17.6006C3.50819 17.4117 3.72779 16.8907 3.35497 16.6507C2.91065 16.3647 2.34375 16.4158 1.49086 15.9459C0.944392 15.6446 1.25593 15.4607 1.43468 15.3739C4.52962 13.8775 5.02501 11.564 5.04544 11.3903C5.07097 11.1809 5.10162 11.0175 4.8718 10.8081C4.65219 10.6038 3.67161 9.99607 3.39583 9.8071C2.9464 9.49046 2.74722 9.17892 2.89533 8.79078C2.99747 8.5252 3.24772 8.42306 3.50819 8.42306C3.5899 8.42306 3.67161 8.43327 3.75333 8.4486C4.24872 8.55585 4.7288 8.80099 5.00458 8.87249C5.04033 8.88271 5.07098 8.88781 5.10673 8.88781C5.25483 8.88781 5.3059 8.8112 5.29569 8.64267C5.26505 8.10131 5.18844 7.04924 5.27526 6.06355C5.39273 4.71016 5.82683 4.03601 6.34776 3.44358C6.59801 3.15758 7.76755 1.92165 10.0096 1.92165C12.2516 1.92165 13.4212 3.15248 13.6714 3.43848C14.1924 4.03091 14.6265 4.70505 14.7439 6.05845C14.8308 7.04413 14.7541 8.0962 14.7184 8.63756C14.7082 8.81631 14.7593 8.8827 14.9074 8.8827C14.9431 8.8827 14.9738 8.8776 15.0095 8.86738C15.2853 8.80099 15.7654 8.55074 16.2608 8.44349C16.3425 8.42306 16.4242 8.41795 16.5059 8.41795C16.7664 8.41795 17.0166 8.5201 17.1188 8.78567C17.2669 9.17381 17.0677 9.48535 16.6183 9.80199C16.3476 9.99096 15.367 10.5987 15.1423 10.803C14.9125 11.0124 14.9431 11.1758 14.9686 11.3852C14.9891 11.5589 15.4845 13.8724 18.5794 15.3688C18.7633 15.4556 19.0697 15.6446 18.5283 15.9459Z" fill="#616469"/>
</svg>
