<svg width="20" height="21" viewBox="0 0 20 21" fill="none" xmlns="http://www.w3.org/2000/svg">
<g clip-path="url(#clip0_396_25466)">
<path d="M6.2918 18.7721C13.8371 18.7721 17.9652 12.5193 17.9652 7.09865C17.9652 6.92286 17.9613 6.74318 17.9535 6.5674C18.7566 5.98665 19.4496 5.26731 20 4.44318C19.2521 4.77593 18.458 4.99325 17.6449 5.08771C18.5011 4.57452 19.1421 3.76832 19.4492 2.81857C18.6438 3.29589 17.763 3.6326 16.8445 3.81427C16.2257 3.15673 15.4075 2.72136 14.5164 2.57547C13.6253 2.42958 12.711 2.5813 11.9148 3.00718C11.1186 3.43305 10.4848 4.10935 10.1115 4.93152C9.73825 5.75369 9.64619 6.67594 9.84961 7.55568C8.21874 7.47384 6.62328 7.05018 5.16665 6.31218C3.71002 5.57417 2.42474 4.53829 1.39414 3.27169C0.870333 4.1748 0.710047 5.24347 0.945859 6.2605C1.18167 7.27754 1.79589 8.16663 2.66367 8.74708C2.01219 8.7264 1.37498 8.55099 0.804688 8.23536V8.28615C0.804104 9.23389 1.13175 10.1526 1.73192 10.8861C2.3321 11.6196 3.16777 12.1226 4.09687 12.3096C3.49338 12.4747 2.85999 12.4988 2.2457 12.3799C2.50788 13.195 3.01798 13.9078 3.70481 14.419C4.39164 14.9302 5.22093 15.2143 6.07695 15.2315C4.62369 16.373 2.82848 16.9922 0.980469 16.9893C0.652739 16.9888 0.325333 16.9687 0 16.9291C1.87738 18.1336 4.06128 18.7732 6.2918 18.7721Z" fill="#616469"/>
</g>
<defs>
<clipPath id="clip0_396_25466">
<rect width="20" height="20" fill="white" transform="translate(0 0.646973)"/>
</clipPath>
</defs>
</svg>
